<svg width="115" height="34" viewBox="0 0 115 34" fill="none" xmlns="http://www.w3.org/2000/svg">
<path d="M76.0606 15.6782C76.4536 15.5117 76.6383 15.2226 76.8647 14.9885C77.1435 14.6959 77.448 14.6506 77.8229 14.7795C78.6284 15.0582 79.3329 15.5152 80.0262 15.9938C80.4332 16.2725 80.5252 16.5588 80.1795 17.0026C78.2981 19.425 76.8167 22.0807 75.6836 24.928C75.5443 25.2882 75.4676 25.6748 75.3505 26.0427C75.0927 26.8599 75.531 27.3894 76.1073 27.8499C76.6369 28.2728 77.1943 28.0833 77.71 27.8283C78.296 27.5378 78.7552 27.0898 79.1308 26.545C79.9203 25.3962 80.5377 24.1631 81.0819 22.8833C82.0805 20.5389 83.2992 18.3172 84.9249 16.3345C85.4392 15.7075 85.4573 15.6908 86.1499 16.145C86.6718 16.4885 87.2063 16.8229 87.6829 17.2207C88.2599 17.6993 88.2613 17.8755 87.8585 18.5074C86.7387 20.2624 85.8245 22.1127 85.235 24.1129C85.0886 24.5799 85.0063 25.0645 84.9904 25.5536C84.9765 26.5102 85.7569 27.5447 86.6732 27.7941C87.3185 27.9704 88.3595 27.3894 88.7477 26.5527C89.1735 25.6519 89.5517 24.7294 89.8807 23.7889C91.0165 20.4741 92.8436 17.5523 94.9222 14.7642C96.4469 12.7187 98.1116 10.8105 100.125 9.21933C100.527 8.90094 100.883 8.82849 101.36 8.98663C102.242 9.26971 103.034 9.78036 103.656 10.4671C104.283 11.1638 104.457 12.0255 103.575 12.7417C101.27 14.6158 99.3038 16.8236 97.5827 19.2355C96.3284 20.9932 95.2999 22.8826 94.8811 25.0374C94.7376 25.78 94.8693 26.4746 95.3619 27.0787C95.8985 27.737 96.2957 27.7698 96.9221 27.1859C98.267 25.9319 99.5582 24.6173 100.964 23.4357C103.235 21.5261 105.86 20.3501 108.853 20.1537C112.407 19.921 114.776 22.2033 114.975 24.8556C115.192 27.7523 113.972 30.1057 111.498 31.7171C109.771 32.8416 107.833 33.2345 105.791 33.215C105.192 33.2094 104.63 33.0422 104.066 32.891C103.706 32.7942 103.439 32.535 103.404 32.147C103.371 31.7736 103.683 31.6078 103.954 31.4559C104.155 31.3416 104.391 31.2901 104.607 31.1995C104.968 31.0476 105.344 30.9208 105.678 30.7223C106.367 30.3147 106.758 29.3867 106.547 28.7646C106.352 28.1912 105.615 27.7823 104.805 27.8206C103.743 27.8676 102.706 28.1533 101.77 28.6566C100.131 29.5344 98.506 30.4373 97.0176 31.5653C96.2967 32.1118 95.4595 32.4846 94.571 32.6549C93.1976 32.9259 92.0666 32.5545 91.1364 31.5095C90.5399 30.8269 89.9944 30.1013 89.5044 29.3387C88.7532 29.9552 88.0599 30.5537 87.3366 31.1117C86.299 31.9129 85.1165 32.4173 83.8351 32.6813C83.1034 32.8318 82.4616 32.6946 81.907 32.124C81.1321 31.3242 80.3349 30.5495 79.7412 29.4822C79.329 30.0318 78.8774 30.5508 78.3901 31.0351C77.5825 31.8404 76.6181 32.3769 75.5505 32.7489C74.7882 33.0157 74.0558 32.9739 73.3479 32.5594C72.4058 32.0083 71.571 31.334 71.0135 30.3872C70.7508 29.942 70.5473 29.9148 70.1717 30.2478C68.8645 31.4113 67.3371 32.1769 65.6751 32.7127C64.7386 33.0143 63.8634 32.9412 63.0084 32.4925C61.4691 31.6886 60.1326 30.6812 59.5124 28.9235C58.5898 29.7358 57.716 30.5098 56.838 31.2782C56.172 31.8549 55.4442 32.3563 54.6681 32.7733C53.9608 33.1586 53.2912 33.199 52.5609 32.7775C52.0181 32.464 51.492 32.1303 50.9631 31.7966C50.0126 31.196 49.5186 30.3509 49.4517 29.2384C49.4357 28.975 49.3716 28.7151 49.3123 28.3403C48.6664 29.0872 48.0838 29.7337 47.5299 30.4067C46.8261 31.2608 46.0205 32.009 45.0554 32.5399C43.774 33.2484 42.4619 32.99 41.2173 32.4194C40.0146 31.8683 39.0035 31.026 38.0733 30.089C37.4838 29.4968 37.7005 28.7458 37.7729 28.0819C38.0656 25.4052 39.0168 22.9376 40.3366 20.6023C40.9825 19.4591 41.7086 18.373 42.5929 17.3976C42.6547 17.3124 42.7091 17.222 42.7552 17.1273C42.3539 16.9044 42.0626 17.0792 41.7741 17.2855C37.1047 20.6316 34.0108 25.0318 32.7565 30.6707C32.2687 32.8457 32.0855 32.6458 30.3385 31.9004C29.3219 31.4663 28.7303 30.693 28.4648 29.6473C28.4223 29.4787 28.4313 29.2934 28.2237 29.184C27.7436 29.5588 27.2725 29.9671 26.7603 30.3182C24.5187 31.8586 22.0547 32.7984 19.312 32.8186C17.8807 32.829 16.4899 32.5622 15.1603 31.9345C13.6567 31.2236 12.198 30.4211 10.7926 29.5317C9.96272 29.0085 9.47285 28.1829 8.83317 27.3023C9.3091 27.3309 9.64776 27.3343 9.98223 27.372C12.8789 27.7098 15.5847 27.1037 18.1274 25.7215C18.4424 25.5501 18.6535 25.6052 18.9113 25.8177C19.9057 26.6391 21.0582 27.172 22.27 27.583C24.0483 28.1871 25.6148 27.6464 27.0885 26.6613C27.9115 26.111 28.6669 25.4672 29.0174 24.5156C29.8299 22.3106 28.3045 20.0478 25.9311 19.8346C24.0588 19.6667 22.4296 20.3439 20.8589 21.2196C18.8632 22.3343 16.9567 23.6663 14.7025 24.1986C11.2658 25.0088 8.01858 24.6166 5.15603 22.3482C3.40282 20.9625 1.88584 19.3818 0.864296 17.3705C0.306837 16.2753 -0.0617835 15.1411 0.00859571 13.8871C0.0413464 13.2984 0.223915 12.7961 0.789735 12.5529C1.30399 12.3314 1.71999 12.5794 2.11718 12.9215C3.16242 13.8209 4.29615 14.5712 5.64729 14.9551C6.09674 15.0819 6.53783 15.0686 6.9838 15.0331C7.37193 15.0024 7.44161 14.6632 7.55101 14.3692C8.74397 11.1644 10.7696 8.62576 13.7095 6.85271C15.3039 5.89199 17.0348 5.36043 18.9099 5.18069C20.698 5.0107 22.3585 5.37854 24.0093 5.95818C24.226 6.03412 24.4371 6.1623 24.688 6.11005C24.858 5.96584 24.7716 5.78262 24.7521 5.6189C24.5277 3.75807 25.9102 1.2995 27.6293 0.506677C30.227 -0.687429 33.6289 0.302549 35.1654 2.70469C35.4114 3.08996 35.495 3.53583 35.603 3.97125C36.1201 6.04805 35.0923 8.52892 33.2729 9.65963C32.8548 9.91809 32.5684 9.82543 32.3321 9.46386C31.9837 8.92672 31.8444 8.31991 31.8304 7.68385C31.8266 7.57508 31.8547 7.46757 31.9113 7.37459C31.9679 7.28162 32.0505 7.20724 32.1489 7.16064C32.684 6.86804 33.0178 6.38385 33.3641 5.9108C33.7774 5.34789 33.6896 4.6735 33.0854 4.29939C31.6513 3.41322 29.34 3.5853 28.5254 5.55829C27.8634 7.16064 27.876 8.78599 28.3923 10.4232C28.4453 10.5897 28.4766 10.7646 28.5407 10.9269C28.6599 11.2299 28.471 11.4034 28.2864 11.5804C28.069 11.7852 27.8934 11.6222 27.7087 11.5177C24.8582 9.9023 21.9286 9.74392 18.9197 11.0425C18.041 11.4236 17.3442 12.0179 16.7595 12.8191C17.0208 13.0058 17.2201 12.8936 17.4187 12.8525C22.2714 11.8458 26.3687 13.1374 29.5978 16.9197C30.5852 18.0838 31.0841 19.5239 31.4528 20.9918C31.4806 21.1046 31.4932 21.2217 31.5301 21.3311C31.5468 21.3812 31.6054 21.4168 31.643 21.4565C31.8618 21.4516 31.8952 21.2677 31.9322 21.1332C32.1823 20.2275 32.3551 19.2835 32.2555 18.3583C32.1816 17.6714 32.3168 17.1405 32.7231 16.6264C33.2924 15.9067 33.8624 15.1864 34.4163 14.4542C34.9494 13.7484 35.6616 13.3513 36.5068 13.1493C37.4384 12.919 38.3998 12.8328 39.3575 12.8936C39.5854 12.9096 39.8404 12.9068 39.9554 13.1785C40.0794 13.4711 39.8418 13.6063 39.6864 13.7658C39.1345 14.335 38.6844 14.9613 38.4628 15.7367C38.398 15.9632 38.375 16.1805 38.5638 16.3282C38.8126 16.524 38.952 16.2586 39.0955 16.1311C40.1317 15.2303 41.294 14.4987 42.3985 13.6927C43.2772 13.0504 44.3663 13.0657 45.4046 13.205C46.67 13.3671 47.8925 13.7713 49.005 14.3956C49.9451 14.9244 50.0085 15.3982 49.3102 16.1965C47.3933 18.3869 45.8861 20.8476 44.6903 23.4949C44.2576 24.4543 44.2081 25.5007 44.0632 26.5178C43.983 27.0968 44.4025 27.5628 44.8729 27.8561C45.3216 28.1348 45.7481 27.875 46.0867 27.5538C47.4889 26.2202 48.73 24.727 49.7848 23.1048C51.7484 20.1007 53.3121 16.8347 55.6716 14.0912C56.0541 13.6467 55.6716 13.5213 55.3649 13.3889C54.3894 12.9633 53.3504 12.7619 52.3122 12.5641C50.5046 12.2213 50.1931 11.6842 50.7694 9.9167C50.9491 9.33855 51.1912 8.78165 51.4913 8.25582C52.0251 7.35014 52.7337 7.10143 53.7337 7.39542C55.5287 7.92281 57.2004 8.71911 58.8156 9.6443C59.2156 9.87281 59.4846 9.8742 59.8239 9.50845C60.341 8.9511 60.934 8.46343 61.4963 7.95068C62.0119 7.48181 62.5555 7.35432 63.2035 7.73053C63.8863 8.11369 64.508 8.59671 65.048 9.16359C65.4968 9.645 65.4905 9.90207 64.986 10.3375C64.3226 10.9116 63.6042 11.4257 62.9993 12.1711C63.3519 12.4533 63.6962 12.7285 64.039 13.0016C64.2913 13.1987 64.3136 13.3701 64.0759 13.623C63.3924 14.349 62.7283 15.0923 62.0733 15.8433C61.8503 16.099 61.6684 16.1025 61.3674 15.952C59.9145 15.2233 60.3221 15.0679 59.2469 16.4007C57.5188 18.5402 56.0228 20.8218 55.0744 23.4253C54.7782 24.2362 54.5322 25.0604 54.5099 25.9277C54.4911 26.6439 54.7113 27.2702 55.3329 27.7098C55.9858 28.1724 56.4778 28.1975 57.075 27.6687C57.9982 26.8522 58.8707 25.98 59.6873 25.0569C59.8371 24.8767 59.9515 24.6699 60.0246 24.4473C61.3806 20.6504 63.8571 17.7244 67.1148 15.4225C68.1328 14.7036 69.1593 13.9665 70.3752 13.6014C71.5789 13.2341 72.8631 13.2225 74.0733 13.568C74.8781 13.7937 75.4446 14.2925 75.7951 15.0422C75.8899 15.2379 75.963 15.4386 76.0606 15.6782ZM14.9666 22.1817C13.7855 22.0668 12.6929 21.9845 11.6455 21.6327C11.478 21.5793 11.3177 21.5053 11.1682 21.4126C11.0477 21.3345 10.863 21.2579 10.9348 21.0587C10.9933 20.8949 11.1613 20.9402 11.2923 20.9249C11.6212 20.8873 11.9494 20.8288 12.2797 20.8162C14.1478 20.7466 15.2934 19.7092 16.0139 18.0818C16.6104 16.7344 16.092 15.5772 14.6851 15.1306C14.09 14.9411 13.4866 14.9913 12.8838 15.061C11.6079 15.2038 10.4289 15.688 9.23245 16.1102C8.036 16.5323 6.79357 16.7532 5.55183 16.3798C4.21786 15.9742 2.991 15.2767 1.9604 14.3378C1.80919 14.202 1.66704 14.0591 1.45102 14.1246C1.23501 14.1901 1.21271 14.4186 1.16323 14.6005C1.11376 14.7823 1.17508 14.9425 1.21758 15.116C1.50746 16.3171 2.19314 17.3133 2.82655 18.3479C3.72685 19.8214 4.95744 20.9256 6.4131 21.8166C8.24923 22.939 10.2847 23.3835 12.3953 23.4608C13.281 23.4936 14.1966 23.3744 15.0307 22.9954C15.3046 22.8714 15.6697 22.7035 15.584 22.3322C15.4927 21.9309 15.1081 22.2556 14.9666 22.1817ZM73.2155 16.5282C71.8915 16.5881 70.7452 17.1176 69.7411 17.9445C68.0945 19.3009 66.9294 21.0224 66.027 22.9369C65.595 23.8544 65.3128 24.7838 65.5393 25.8205C65.7532 26.8049 66.6444 27.7628 67.4904 27.7349C68.2028 27.7114 68.8844 27.4387 69.4164 26.9644C70.431 26.0733 71.1912 24.981 71.7856 23.7834C72.6671 21.9964 73.458 20.1655 74.4008 18.4085C74.9053 17.4645 74.276 16.4794 73.2155 16.5282ZM107.765 25.4519C108.601 26.3736 109.221 27.3141 109.228 28.5124C109.234 29.7274 108.675 30.6895 107.695 31.4273C107.949 31.5931 108.089 31.5708 108.22 31.5381C109.602 31.1967 110.937 30.778 111.799 29.5108C112.073 29.1081 112.426 28.7514 112.651 28.3264C113.355 26.9748 113.76 25.5397 113.163 24.0579C111.883 20.8824 108.084 21.0545 105.788 22.9C105.429 23.1884 105.585 23.4106 105.967 23.4922C106.425 23.5897 106.899 23.6176 107.351 23.7346C108.437 24.0133 109.534 24.3108 110.022 25.4923C110.119 25.7292 110.336 26.0671 110.103 26.2482C109.805 26.4788 109.65 26.0678 109.468 25.9082C109.012 25.5063 108.566 25.1509 107.765 25.4512V25.4519Z" fill="#EFF1F3"/>
</svg>
