<svg width="130" height="145" fill="#FED766"
    xmlns="http://www.w3.org/2000/svg">
    <path d="M9.95087 142.232C10.1509 142.513 10.4333 142.725 10.7592 142.839C11.0851 142.953 11.4383 142.963 11.7703 142.869C12.1023 142.774 12.3967 142.579 12.6129 142.31C12.829 142.042 12.9564 141.713 12.9773 141.369C13.7806 129.133 23.9402 109.015 45.9493 103.785C79.4337 95.8329 108.728 100.04 125.633 61.6828C135.329 39.699 122.288 -5.43617 109.4 0.539933C105.439 2.37767 107.426 12.9136 102.89 21.3423C93.4162 38.9597 80.5141 38.186 57.1823 46.7114C13.1019 62.7813 -2.99276 87.2868 0.449181 118.936C1.46722 128.346 4.88146 135.13 9.95087 142.232ZM71.6842 52.3283C83.3951 46.9809 96.6157 43.7337 104.628 32.348C107.496 28.7762 111.104 21.8121 111.595 14.9931C111.796 12.2296 113.957 11.3729 115.751 13.5008C120.328 18.8759 122.371 31.7262 122.399 39.9753C122.461 59.9487 115.855 72.9303 99.1227 84.1294C96.6988 85.8636 82.6748 92.8414 83.3604 88.2747C83.7552 85.6148 86.1306 84.4749 89.254 81.7943C93.5616 78.0635 97.703 73.3448 98.0285 71.0442C98.2432 69.5519 97.2044 68.6883 95.847 69.7453C88.8384 75.2724 80.9435 79.9496 69.4888 74.7058C69.4195 74.7058 69.0594 74.6437 68.9902 74.6022C59.1838 69.2617 61.4622 56.9986 71.6842 52.3283Z" />
    <path d="M26.6061 129.604C31.7725 121.534 41.0248 113.389 54.384 113.451C71.8499 113.527 70.8596 118.349 85.4515 118.978C98.8453 119.538 98.6998 114.08 101.241 116.436C105.002 119.89 84.1218 144.637 62.1682 144.009C53.366 143.753 48.0611 138.64 40.8032 138.53C34.4318 138.433 31.5301 139.435 25.6227 143.525C24.3138 144.437 22.6378 143.76 22.6932 142.047C22.8549 137.624 24.2064 133.326 26.6061 129.604Z" />
</svg>
